<?xml version="1.0" encoding="UTF-8" standalone="no"?><!-- Generator: Gravit.io --><svg xmlns="http://www.w3.org/2000/svg" xmlns:xlink="http://www.w3.org/1999/xlink" style="isolation:isolate" viewBox="0 0 512 512" width="512pt" height="512pt"><clipPath id="_clipPath_OFLK4qVc15Kdmg9oRsNvUbdL8FC9eblS"><rect x="64" y="64" width="384" height="384" transform="matrix(1,0,0,1,0,0)" fill="rgb(255,255,255)"/></clipPath><g clip-path="url(#_clipPath_OFLK4qVc15Kdmg9oRsNvUbdL8FC9eblS)"><g><g><path d=" M 443.5 255.998 C 443.5 354.723 363.477 434.739 264.768 434.739 C 166.053 434.739 86.028 354.723 86.028 255.998 C 86.028 157.29 166.053 77.261 264.768 77.261 C 363.477 77.261 443.5 157.29 443.5 255.998 Z " fill-rule="evenodd" fill="rgb(45,176,221)"/><path d=" M 248.667 270.028 C 248.667 258.171 248.667 246.31 248.667 234.437 C 248.667 234.185 248.659 233.918 248.667 233.667 C 248.7 232.029 248.763 231.945 250.459 231.93 C 257.094 231.917 263.739 231.917 270.382 231.93 C 272.225 231.945 272.237 231.972 272.246 233.765 C 272.259 236.48 272.246 239.184 272.251 241.899 C 272.259 242.263 272.133 242.74 272.519 242.963 C 273.037 243.257 273.329 242.767 273.639 242.474 C 277.594 238.679 282.102 235.739 287.333 234.03 C 294.348 231.734 301.416 231.132 308.564 233.485 C 316.587 236.117 321.887 241.55 324.805 249.375 C 326.464 253.799 327.24 258.421 327.228 263.18 C 327.183 277.364 327.213 291.547 327.213 305.731 C 327.213 306.191 327.234 306.641 327.206 307.089 C 327.135 308.252 326.988 308.349 325.794 308.349 C 318.637 308.349 311.476 308.349 304.328 308.349 C 303.138 308.349 302.964 308.223 302.879 307.102 C 302.845 306.584 302.865 306.065 302.865 305.549 C 302.865 294.528 302.957 283.497 302.816 272.463 C 302.767 268.823 302.635 265.14 301.472 261.585 C 300.248 257.875 298.296 254.836 294.479 253.365 C 292.406 252.567 290.237 252.385 288.038 252.609 C 282.277 253.211 277.817 256.179 273.968 260.295 C 273.183 261.135 273.129 262.116 273.129 263.166 C 273.142 271.287 273.135 279.407 273.135 287.543 C 273.135 293.659 273.135 299.793 273.135 305.912 C 273.135 306.373 273.135 306.821 273.121 307.27 C 273.107 308.04 272.841 308.376 271.951 308.376 C 266.085 308.321 260.211 308.321 254.353 308.307 C 253.126 308.307 251.895 308.307 250.67 308.307 C 248.681 308.291 248.667 308.278 248.667 306.219 C 248.66 302.606 248.667 298.995 248.667 295.382 C 248.667 286.928 248.667 278.486 248.667 270.028 Z " fill-rule="evenodd" fill="rgb(255,255,255)"/><path d=" M 147.259 310.803 C 150.482 312.254 153.704 313.705 156.939 315.129 C 163.765 318.142 170.629 321.057 177.423 324.14 C 187.996 328.926 199.806 323.974 204.046 313.617 C 207.12 306.128 210.587 298.79 213.843 291.362 C 217.673 282.65 221.461 273.919 225.264 265.205 C 229.664 255.135 234.059 245.064 238.454 234.98 C 238.618 234.621 238.803 234.291 239.124 234.062 C 239.369 234.811 239.276 235.592 239.254 236.363 C 238.436 264.968 237.554 293.589 236.819 322.198 C 236.675 327.908 232.678 334.18 225.597 335.643 C 224.703 335.828 223.806 335.831 222.91 335.804 C 194.549 334.986 166.196 334.126 137.838 333.378 C 131.26 333.216 124.619 326.961 124.885 319.655 C 125.102 313.597 125.258 307.536 125.438 301.477 C 126.162 301.412 126.662 302.059 127.347 302.093 C 133.972 305.027 140.673 307.783 147.259 310.803 Z " fill-rule="evenodd" fill="rgb(255,255,255)"/><path d=" M 88.695 207.205 C 93.21 196.004 97.725 184.803 102.256 173.603 C 106.687 162.625 111.132 151.662 115.592 140.699 C 117.146 136.863 118.503 132.942 120.317 129.218 C 121.907 125.493 123.335 121.713 124.853 117.961 C 128.06 111.549 133.269 107.376 139.94 105.163 C 145.385 103.371 151.014 103.427 156.391 105.542 C 166.226 109.406 175.972 113.48 185.765 117.429 C 195.09 121.181 204.436 124.891 213.761 128.63 C 214.069 128.755 214.336 128.979 214.621 129.148 C 216.87 129.918 219.041 130.869 221.246 131.738 C 229.806 135.182 238.376 138.584 246.909 142.084 C 250.437 143.525 254.098 144.66 257.438 146.522 C 265.803 151.171 270.278 158.311 270.899 167.889 C 271.194 172.509 269.981 176.764 268.239 180.965 C 265.326 188.007 262.547 195.107 259.713 202.177 C 259.474 202.807 259.194 203.437 259.236 204.138 C 258.593 207.693 256.878 210.843 255.568 214.148 C 248.721 231.412 241.68 248.619 234.749 265.854 C 228.616 281.13 222.587 296.461 216.174 311.624 C 212.185 321.047 204.814 326.297 194.621 327.698 C 189.348 328.44 184.581 327.011 179.807 325.121 C 170.418 321.426 161.123 317.477 151.735 313.768 C 148.108 312.325 144.454 310.966 140.989 309.147 C 135.128 306.122 128.842 304.119 122.794 301.571 C 120.156 300.465 117.558 299.234 114.751 298.575 C 113.715 298.434 112.875 297.904 112.104 297.232 C 108.801 295.27 105.104 294.235 101.609 292.752 C 95.534 290.175 89.276 287.977 83.304 285.191 C 75.708 281.662 71.018 275.629 69.106 267.353 C 67.895 262.089 68.575 257.063 70.478 252.149 C 73.034 245.609 75.772 239.141 78.432 232.644 C 79.377 231.048 79.901 229.284 80.497 227.549 L 80.49 227.562 C 81.505 225.574 81.959 223.376 83.066 221.443 C 84.018 218.293 85.475 215.353 86.628 212.288 C 87.455 211.628 87.301 210.579 87.651 209.724 L 87.651 209.724 C 88.353 209.04 88.212 207.989 88.695 207.205 Z " fill-rule="evenodd" fill="rgb(241,117,34)"/><path d=" M 384.549 308.265 C 379.143 308.727 373.837 307.818 368.684 306.082 C 357.98 302.483 349.923 295.764 345.33 285.317 C 343.587 281.369 342.65 277.183 342.608 272.786 C 342.572 268.307 342.889 263.924 344.217 259.625 C 345.779 254.57 348.258 250.035 351.687 246.03 C 356.496 240.429 362.467 236.524 369.44 234.171 C 372.921 232.982 376.491 232.31 380.159 231.902 C 384.563 231.414 388.896 231.695 393.222 232.394 C 399.011 233.317 404.386 235.404 409.294 238.61 C 415.952 242.964 420.881 248.802 423.674 256.279 C 425.774 261.894 426.362 267.704 425.619 273.726 C 424.934 279.311 423.204 284.463 420.307 289.266 C 416.835 295.036 412.018 299.417 406.215 302.722 C 402 305.129 397.451 306.74 392.675 307.622 C 390.022 308.127 387.333 308.489 384.549 308.265 Z " fill-rule="evenodd" fill="rgb(255,255,255)"/><path d=" M 159.947 300.663 C 157.392 299.543 154.858 298.38 152.268 297.343 C 150.938 296.825 150.666 296.127 151.26 294.852 C 152.563 292.095 153.794 289.294 155.054 286.509 C 156.398 283.343 158.029 280.334 159.437 277.212 C 161.132 273.585 162.797 269.944 164.541 266.346 C 165.016 265.366 165.086 264.539 164.63 263.518 C 159.311 251.477 154.039 239.409 148.746 227.339 C 144.805 218.365 140.857 209.391 136.915 200.415 C 133.667 193.008 130.426 185.615 127.178 178.209 C 125.308 174.443 123.761 170.537 122.09 166.7 C 121.865 166.181 121.74 165.622 122.153 165.173 C 122.664 164.6 123.342 164.754 123.887 165.047 C 124.764 165.509 125.729 165.733 126.562 166.279 C 132.591 168.799 138.603 171.334 144.638 173.853 C 145.044 174.386 145.842 173.882 146.24 174.455 L 146.235 174.455 C 149.607 176.121 153.241 177.2 156.642 178.81 C 158.813 179.748 160.949 180.77 163.161 181.582 C 164.751 182.171 165.662 183.263 166.25 184.774 C 170.069 194.576 173.892 204.39 177.715 214.206 C 178.898 217.244 180.088 220.281 181.257 223.319 C 181.446 223.824 181.532 224.468 182.21 224.468 C 182.854 224.455 183.042 223.837 183.232 223.334 C 185.15 218.334 187.055 213.338 188.978 208.338 C 191.618 201.477 194.266 194.631 196.911 187.77 C 197.007 187.518 197.037 187.239 197.1 186.972 C 199.318 181.331 201.419 175.659 203.667 170.03 L 203.667 170.03 C 204.386 167.455 205.592 165.06 206.501 162.539 C 206.976 161.224 207.769 160.817 209.231 161.42 C 211.379 162.288 213.53 163.17 215.7 164.009 C 221.853 166.614 228.014 169.204 234.168 171.836 C 236.205 172.704 236.311 173.083 235.442 175.057 C 234.491 177.213 233.58 179.368 232.648 181.526 C 230.997 184.899 230.016 188.553 228.257 191.886 L 228.257 191.886 C 227.74 192.32 228.239 193.104 227.677 193.51 C 225.521 198.509 223.336 203.493 221.209 208.491 C 216.331 219.93 211.471 231.369 206.627 242.822 C 201.572 254.779 196.552 266.736 191.513 278.695 C 187.669 287.808 183.812 296.909 179.939 306.01 C 178.959 308.307 178.709 308.418 176.279 307.439 C 173.919 306.485 171.588 305.479 169.25 304.486 C 166.73 303.309 164.027 302.553 161.579 301.222 L 161.579 301.222 C 161.152 300.705 160.374 301.182 159.947 300.663 Z " fill-rule="evenodd" fill="rgb(255,255,255)"/><path d=" M 366.661 269.441 C 366.514 265.254 367.25 261.32 369.154 257.624 C 371.688 252.695 375.804 250.048 381.216 249.46 C 384.626 249.083 388.021 249.335 391.227 250.818 C 395.226 252.667 397.982 255.705 399.691 259.68 C 401.617 264.203 402.155 268.936 401.686 273.837 C 401.385 276.958 400.706 279.927 399.207 282.687 C 396.387 287.909 391.863 290.388 386.076 290.835 C 383.478 291.045 380.942 290.666 378.494 289.798 C 373.754 288.133 370.632 284.786 368.67 280.278 C 367.166 276.805 366.507 273.15 366.661 269.441 Z " fill-rule="evenodd" fill="rgb(45,176,221)"/></g></g></g></svg>