<?xml version="1.0" encoding="UTF-8" standalone="no"?><!-- Generator: Gravit.io --><svg xmlns="http://www.w3.org/2000/svg" xmlns:xlink="http://www.w3.org/1999/xlink" style="isolation:isolate" viewBox="0 0 512 512" width="512pt" height="512pt"><defs><clipPath id="_clipPath_6s25U4HYmmJEA6C4ldseTCE6GxPMUFL6"><rect width="512" height="512"/></clipPath></defs><g clip-path="url(#_clipPath_6s25U4HYmmJEA6C4ldseTCE6GxPMUFL6)"><g><path d=" M 506 255.997 C 506 387.63 399.303 494.319 267.691 494.319 C 136.071 494.319 29.371 387.63 29.371 255.997 C 29.371 124.387 136.071 17.681 267.691 17.681 C 399.303 17.681 506 124.387 506 255.997 Z " fill-rule="evenodd" fill="rgb(45,176,221)"/><path d=" M 246.222 274.704 C 246.222 258.894 246.222 243.08 246.222 227.249 C 246.222 226.913 246.212 226.558 246.222 226.222 C 246.267 224.039 246.351 223.927 248.612 223.907 C 257.459 223.889 266.319 223.889 275.176 223.907 C 277.633 223.927 277.65 223.963 277.661 226.353 C 277.678 229.974 277.661 233.578 277.668 237.199 C 277.678 237.684 277.511 238.32 278.025 238.618 C 278.716 239.01 279.106 238.356 279.518 237.965 C 284.792 232.905 290.803 228.985 297.777 226.707 C 307.13 223.646 316.555 222.843 326.085 225.98 C 336.782 229.489 343.849 236.734 347.74 247.167 C 349.952 253.066 350.987 259.228 350.97 265.573 C 350.911 284.486 350.951 303.396 350.951 322.308 C 350.951 322.922 350.979 323.521 350.941 324.119 C 350.847 325.669 350.651 325.799 349.059 325.799 C 339.516 325.799 329.968 325.799 320.438 325.799 C 318.851 325.799 318.618 325.63 318.505 324.136 C 318.46 323.445 318.487 322.754 318.487 322.065 C 318.487 307.371 318.609 292.663 318.422 277.951 C 318.356 273.097 318.18 268.187 316.629 263.446 C 314.997 258.5 312.395 254.448 307.305 252.487 C 304.541 251.423 301.65 251.18 298.718 251.479 C 291.036 252.282 285.09 256.238 279.957 261.726 C 278.911 262.847 278.839 264.155 278.839 265.555 C 278.856 276.383 278.846 287.209 278.846 298.057 C 278.846 306.212 278.846 314.39 278.846 322.549 C 278.846 323.164 278.846 323.762 278.828 324.36 C 278.81 325.387 278.454 325.834 277.268 325.834 C 269.447 325.762 261.615 325.762 253.804 325.742 C 252.168 325.742 250.527 325.742 248.893 325.742 C 246.241 325.722 246.223 325.704 246.223 322.959 C 246.213 318.142 246.223 313.327 246.223 308.509 C 246.222 297.237 246.222 285.981 246.222 274.704 Z " fill-rule="evenodd" fill="rgb(255,255,255)"/><path d=" M 111.012 329.07 C 115.309 331.005 119.605 332.94 123.919 334.839 C 133.02 338.856 142.172 342.742 151.231 346.853 C 165.328 353.234 181.074 346.632 186.728 332.823 C 190.827 322.837 195.45 313.054 199.791 303.15 C 204.897 291.533 209.948 279.892 215.018 268.273 C 220.885 254.847 226.745 241.419 232.605 227.974 C 232.824 227.495 233.071 227.054 233.498 226.749 C 233.825 227.748 233.702 228.79 233.672 229.817 C 232.581 267.957 231.405 306.118 230.426 344.264 C 230.234 351.878 224.904 360.24 215.463 362.191 C 214.27 362.437 213.075 362.441 211.88 362.405 C 174.066 361.315 136.261 360.168 98.451 359.171 C 89.68 358.955 80.825 350.614 81.18 340.874 C 81.469 332.796 81.677 324.715 81.918 316.636 C 82.883 316.549 83.549 317.412 84.463 317.457 C 93.296 321.37 102.23 325.044 111.012 329.07 Z " fill-rule="evenodd" fill="rgb(255,255,255)"/><path d=" M 32.927 190.94 C 38.947 176.006 44.967 161.071 51.008 146.137 C 56.916 131.5 62.843 116.883 68.789 102.265 C 70.861 97.15 72.671 91.923 75.09 86.957 C 77.209 81.991 79.113 76.951 81.137 71.948 C 85.413 63.399 92.359 57.835 101.253 54.884 C 108.514 52.495 116.019 52.57 123.188 55.389 C 136.301 60.541 149.296 65.974 162.353 71.239 C 174.787 76.241 187.248 81.188 199.681 86.173 C 200.092 86.34 200.448 86.638 200.828 86.864 C 203.826 87.891 206.721 89.159 209.661 90.317 C 221.075 94.909 232.501 99.445 243.878 104.112 C 248.583 106.034 253.464 107.547 257.918 110.03 C 269.071 116.228 275.037 125.748 275.865 138.518 C 276.259 144.679 274.641 150.352 272.319 155.954 C 268.435 165.343 264.729 174.809 260.951 184.236 C 260.632 185.076 260.259 185.916 260.315 186.85 C 259.457 191.591 257.17 195.791 255.424 200.197 C 246.295 223.216 236.907 246.159 227.665 269.138 C 219.488 289.507 211.45 309.948 202.899 330.165 C 197.58 342.729 187.752 349.729 174.161 351.597 C 167.131 352.587 160.775 350.681 154.409 348.161 C 141.891 343.234 129.497 337.969 116.98 333.024 C 112.144 331.1 107.272 329.288 102.652 326.863 C 94.838 322.829 86.456 320.159 78.392 316.761 C 74.874 315.287 71.41 313.645 67.668 312.767 C 66.287 312.579 65.166 311.872 64.139 310.976 C 59.734 308.36 54.806 306.98 50.146 305.002 C 42.045 301.567 33.701 298.636 25.739 294.921 C 15.611 290.216 9.357 282.172 6.808 271.137 C 5.193 264.119 6.1 257.417 8.638 250.865 C 12.045 242.146 15.696 233.521 19.242 224.859 C 20.502 222.731 21.202 220.379 21.996 218.065 L 21.986 218.083 C 23.34 215.432 23.946 212.502 25.421 209.924 C 26.69 205.724 28.633 201.804 30.171 197.717 C 31.273 196.838 31.068 195.438 31.535 194.299 L 31.535 194.299 C 32.47 193.386 32.283 191.986 32.927 190.94 Z " fill-rule="evenodd" fill="rgb(241,117,34)"/><path d=" M 427.399 325.687 C 420.191 326.302 413.116 325.091 406.245 322.776 C 391.973 317.978 381.231 309.018 375.107 295.09 C 372.783 289.826 371.533 284.244 371.478 278.382 C 371.429 272.409 371.852 266.565 373.623 260.833 C 375.706 254.094 379.01 248.047 383.582 242.707 C 389.995 235.239 397.956 230.032 407.253 226.895 C 411.894 225.31 416.655 224.413 421.545 223.87 C 427.417 223.218 433.194 223.593 438.963 224.525 C 446.681 225.756 453.848 228.539 460.392 232.814 C 469.269 238.619 475.841 246.403 479.565 256.372 C 482.365 263.859 483.15 271.606 482.159 279.634 C 481.245 287.081 478.939 293.951 475.076 300.355 C 470.446 308.048 464.024 313.889 456.287 318.296 C 450.667 321.505 444.601 323.654 438.233 324.829 C 434.696 325.502 431.111 325.986 427.399 325.687 Z " fill-rule="evenodd" fill="rgb(255,255,255)"/><path d=" M 127.929 315.551 C 124.523 314.057 121.144 312.507 117.69 311.124 C 115.918 310.434 115.554 309.502 116.346 307.803 C 118.084 304.126 119.725 300.392 121.406 296.678 C 123.198 292.457 125.372 288.445 127.249 284.282 C 129.509 279.447 131.729 274.592 134.055 269.795 C 134.688 268.488 134.781 267.386 134.174 266.024 C 127.081 249.969 120.052 233.878 112.995 217.786 C 107.74 205.82 102.476 193.854 97.22 181.886 C 92.89 172.011 88.568 162.153 84.237 152.279 C 81.744 147.257 79.682 142.049 77.453 136.933 C 77.153 136.241 76.986 135.496 77.537 134.898 C 78.218 134.133 79.122 134.339 79.85 134.729 C 81.019 135.346 82.306 135.644 83.416 136.372 C 91.455 139.732 99.471 143.112 107.517 146.471 C 108.059 147.181 109.122 146.509 109.654 147.273 L 109.646 147.273 C 114.143 149.495 118.988 150.933 123.523 153.08 C 126.418 154.331 129.265 155.693 132.214 156.776 C 134.335 157.561 135.549 159.017 136.333 161.032 C 141.426 174.101 146.523 187.187 151.62 200.274 C 153.197 204.325 154.784 208.375 156.343 212.425 C 156.595 213.099 156.709 213.957 157.613 213.957 C 158.472 213.94 158.722 213.116 158.976 212.445 C 161.534 205.779 164.073 199.117 166.637 192.451 C 170.157 183.303 173.688 174.175 177.214 165.027 C 177.343 164.69 177.382 164.319 177.466 163.962 C 180.424 156.441 183.225 148.879 186.223 141.373 L 186.223 141.373 C 187.181 137.94 188.79 134.746 190.001 131.385 C 190.635 129.632 191.692 129.09 193.642 129.893 C 196.506 131.051 199.374 132.227 202.266 133.346 C 210.471 136.819 218.685 140.272 226.891 143.782 C 229.606 144.938 229.748 145.444 228.589 148.076 C 227.321 150.951 226.106 153.824 224.864 156.701 C 222.662 161.199 221.354 166.071 219.01 170.514 L 219.01 170.514 C 218.32 171.094 218.985 172.138 218.236 172.68 C 215.361 179.346 212.448 185.991 209.612 192.654 C 203.108 207.907 196.628 223.158 190.17 238.43 C 183.43 254.372 176.736 270.315 170.017 286.26 C 164.892 298.411 159.749 310.546 154.586 322.68 C 153.279 325.743 152.945 325.891 149.706 324.586 C 146.559 323.314 143.451 321.972 140.333 320.648 C 136.973 319.078 133.37 318.071 130.105 316.296 L 130.105 316.296 C 129.536 315.607 128.499 316.243 127.929 315.551 Z " fill-rule="evenodd" fill="rgb(255,255,255)"/><path d=" M 403.548 273.921 C 403.352 268.339 404.333 263.093 406.872 258.165 C 410.25 251.593 415.738 248.064 422.955 247.28 C 427.501 246.778 432.028 247.114 436.303 249.091 C 441.634 251.556 445.31 255.607 447.588 260.907 C 450.156 266.938 450.874 273.248 450.248 279.783 C 449.846 283.944 448.942 287.902 446.943 291.582 C 443.182 298.546 437.151 301.85 429.435 302.446 C 425.97 302.726 422.59 302.221 419.325 301.064 C 413.005 298.844 408.842 294.382 406.227 288.371 C 404.221 283.74 403.342 278.867 403.548 273.921 Z " fill-rule="evenodd" fill="rgb(45,176,221)"/></g></g></svg>