<?xml version="1.0" encoding="UTF-8" standalone="no"?>
<!-- Generator: Gravit.io --><svg xmlns="http://www.w3.org/2000/svg" xmlns:xlink="http://www.w3.org/1999/xlink"
  style="isolation:isolate" viewBox="0 0 256 256" width="256pt" height="256pt">
  <defs>
    <clipPath id="_clipPath_x6TOSou0hgKVyoJpz7q3PP56OCPeAoux">
      <rect width="256" height="256" />
    </clipPath>
  </defs>
  <g clip-path="url(#_clipPath_x6TOSou0hgKVyoJpz7q3PP56OCPeAoux)">
    <clipPath id="_clipPath_LgLEZIlor6gCm9FtGG7iI3npHyzvNfHU">
      <rect x="0" y="0" width="256" height="256" transform="matrix(1,0,0,1,0,0)" fill="rgb(255,255,255)" />
    </clipPath>
    <g clip-path="url(#_clipPath_LgLEZIlor6gCm9FtGG7iI3npHyzvNfHU)">
      <g>
        <path
          d=" M 224.19 175.099 C 220.038 175.457 215.96 174.759 211.996 173.429 C 203.771 170.659 197.579 165.493 194.046 157.465 C 192.706 154.428 191.986 151.208 191.959 147.831 C 191.927 144.391 192.17 141.024 193.192 137.711 C 194.39 133.831 196.298 130.344 198.936 127.271 C 202.629 122.958 207.221 119.958 212.58 118.151 C 215.253 117.243 218.002 116.711 220.818 116.408 C 224.204 116.041 227.535 116.252 230.86 116.784 C 235.314 117.49 239.443 119.096 243.214 121.564 C 248.333 124.913 252.122 129.399 254.269 135.142 C 255.884 139.463 256.334 143.932 255.765 148.547 C 255.233 152.85 253.903 156.813 251.682 160.502 C 249.003 164.933 245.315 168.3 240.857 170.851 C 237.608 172.695 234.113 173.924 230.442 174.612 C 228.401 174.998 226.337 175.282 224.19 175.099 Z  M 210.446 145.262 C 210.332 142.033 210.9 139.014 212.359 136.179 C 214.309 132.39 217.47 130.353 221.63 129.903 C 224.254 129.61 226.864 129.812 229.327 130.949 C 232.397 132.363 234.525 134.702 235.828 137.766 C 237.314 141.235 237.727 144.877 237.36 148.648 C 237.131 151.042 236.617 153.318 235.461 155.437 C 233.295 159.455 229.814 161.364 225.369 161.713 C 223.369 161.859 221.424 161.575 219.538 160.905 C 215.896 159.63 213.492 157.052 211.992 153.593 C 210.832 150.924 210.326 148.116 210.446 145.262 Z "
          fill-rule="evenodd" fill="rgb(45,176,221)" />
        <path
          d=" M 119.744 145.712 C 119.744 136.592 119.744 127.473 119.744 118.353 C 119.744 118.161 119.739 117.958 119.744 117.756 C 119.776 116.509 119.822 116.435 121.125 116.435 C 126.226 116.417 131.336 116.417 136.442 116.435 C 137.855 116.435 137.864 116.453 137.873 117.839 C 137.882 119.922 137.873 122.004 137.878 124.087 C 137.878 124.371 137.786 124.729 138.084 124.903 C 138.479 125.133 138.708 124.756 138.942 124.536 C 141.983 121.61 145.447 119.353 149.465 118.041 C 154.855 116.279 160.291 115.811 165.787 117.619 C 171.952 119.647 176.026 123.821 178.274 129.831 C 179.545 133.243 180.146 136.784 180.132 140.446 C 180.1 151.346 180.119 162.254 180.119 173.163 C 180.119 173.512 180.137 173.859 180.119 174.199 C 180.058 175.089 179.948 175.172 179.036 175.172 C 173.531 175.172 168.03 175.172 162.53 175.172 C 161.618 175.172 161.48 175.071 161.415 174.209 C 161.387 173.815 161.406 173.41 161.406 173.016 C 161.406 164.539 161.475 156.061 161.37 147.584 C 161.333 144.794 161.232 141.959 160.333 139.225 C 159.392 136.363 157.893 134.032 154.965 132.904 C 153.369 132.289 151.704 132.151 150.007 132.326 C 145.585 132.785 142.149 135.069 139.195 138.234 C 138.589 138.886 138.548 139.629 138.552 140.436 C 138.557 146.684 138.552 152.923 138.552 159.18 C 138.552 163.878 138.552 168.594 138.552 173.301 C 138.552 173.649 138.552 173.998 138.547 174.337 C 138.534 174.933 138.327 175.2 137.643 175.191 C 133.134 175.145 128.625 175.145 124.115 175.136 C 123.17 175.136 122.23 175.145 121.285 175.136 C 119.757 175.127 119.748 175.117 119.748 173.53 C 119.739 170.75 119.743 167.971 119.743 165.199 C 119.744 158.703 119.744 152.207 119.744 145.712 Z "
          fill-rule="evenodd" fill="rgb(45,176,221)" />
        <g>
          <path
            d=" M 42.414 178.98 C 44.924 180.016 47.433 181.062 49.947 182.089 C 55.259 184.246 60.599 186.338 65.893 188.549 C 74.118 191.999 83.077 187.934 86.109 179.879 C 88.307 174.062 90.807 168.337 93.146 162.566 C 95.889 155.795 98.61 148.997 101.339 142.217 C 104.495 134.381 107.651 126.546 110.808 118.702 C 110.923 118.427 111.06 118.169 111.304 117.977 C 111.5 118.545 111.45 119.151 111.45 119.748 C 111.455 141.749 111.414 163.75 111.487 185.751 C 111.496 190.136 108.565 195.055 103.156 196.329 C 102.473 196.485 101.785 196.513 101.092 196.513 C 79.288 196.513 57.484 196.476 35.68 196.532 C 30.625 196.55 25.381 191.889 25.422 186.274 C 25.455 181.613 25.436 176.953 25.445 172.301 C 26 172.227 26.395 172.713 26.927 172.732 C 32.079 174.833 37.285 176.806 42.414 178.98 Z "
            fill-rule="evenodd" fill="rgb(45,176,221)" />
          <path
            d=" M 11.784 119.766 C 14.422 113.224 17.055 106.692 19.697 100.15 C 22.28 93.755 24.877 87.351 27.478 80.956 C 28.386 78.718 29.175 76.433 30.239 74.249 C 31.166 72.084 31.996 69.873 32.886 67.689 C 34.754 63.937 37.795 61.506 41.69 60.221 C 44.864 59.166 48.149 59.203 51.286 60.441 C 57.025 62.698 62.714 65.065 68.43 67.368 C 73.87 69.561 79.32 71.726 84.765 73.91 C 84.944 73.983 85.1 74.112 85.27 74.213 C 86.577 74.662 87.848 75.222 89.133 75.727 C 94.128 77.736 99.128 79.727 104.11 81.764 C 106.17 82.599 108.308 83.268 110.253 84.351 C 115.134 87.067 117.744 91.232 118.107 96.82 C 118.285 99.517 117.574 101.995 116.556 104.453 C 114.859 108.564 113.235 112.701 111.583 116.83 C 111.441 117.197 111.276 117.565 111.304 117.977 C 110.927 120.05 109.927 121.886 109.161 123.812 C 105.165 133.895 101.06 143.932 97.014 153.997 C 93.435 162.906 89.921 171.852 86.178 180.696 C 83.848 186.201 79.545 189.256 73.599 190.082 C 70.521 190.504 67.737 189.679 64.952 188.577 C 59.47 186.412 54.048 184.109 48.57 181.943 C 46.456 181.109 44.322 180.31 42.299 179.246 C 38.877 177.494 35.212 176.32 31.679 174.833 C 30.138 174.191 28.624 173.466 26.986 173.081 C 26.38 172.998 25.894 172.695 25.445 172.301 C 23.518 171.163 21.362 170.558 19.321 169.686 C 15.774 168.181 12.123 166.897 8.637 165.274 C 4.2 163.209 1.466 159.686 0.356 154.869 C -0.355 151.786 0.044 148.85 1.154 145.997 C 2.645 142.18 4.241 138.401 5.797 134.612 C 6.343 133.684 6.65 132.648 6.998 131.638 L 6.994 131.638 C 7.586 130.491 7.856 129.207 8.499 128.07 C 9.054 126.235 9.902 124.518 10.577 122.73 C 11.058 122.345 10.971 121.73 11.173 121.234 L 11.173 121.234 C 11.582 120.83 11.499 120.215 11.784 119.766 Z  M 55.81 170.906 C 54.424 170.31 53.039 169.668 51.63 169.108 C 50.91 168.823 50.759 168.447 51.084 167.759 C 51.791 166.245 52.461 164.722 53.149 163.208 C 53.883 161.493 54.768 159.85 55.534 158.144 C 56.456 156.171 57.36 154.199 58.31 152.235 C 58.567 151.703 58.613 151.253 58.36 150.694 C 55.466 144.143 52.598 137.574 49.718 131.014 C 47.571 126.133 45.424 121.243 43.282 116.362 C 41.511 112.334 39.749 108.306 37.983 104.278 C 36.964 102.232 36.121 100.104 35.208 98.012 C 35.089 97.727 35.019 97.434 35.244 97.177 C 35.524 96.874 35.891 96.957 36.189 97.122 C 36.667 97.361 37.194 97.489 37.643 97.783 C 40.924 99.159 44.199 100.535 47.479 101.911 C 47.699 102.196 48.14 101.92 48.355 102.232 L 48.351 102.232 C 50.186 103.14 52.158 103.727 54.012 104.608 C 55.195 105.113 56.356 105.663 57.558 106.113 C 58.425 106.434 58.92 107.03 59.241 107.847 C 61.319 113.187 63.402 118.526 65.48 123.857 C 66.127 125.518 66.773 127.169 67.411 128.83 C 67.513 129.096 67.554 129.453 67.925 129.444 C 68.278 129.444 68.379 129.105 68.48 128.83 C 69.526 126.114 70.563 123.389 71.609 120.673 C 73.045 116.939 74.49 113.214 75.926 109.48 C 75.976 109.342 75.999 109.186 76.031 109.048 C 77.233 105.984 78.38 102.893 79.605 99.828 L 79.605 99.828 C 79.995 98.424 80.65 97.122 81.146 95.755 C 81.408 95.03 81.834 94.819 82.632 95.14 C 83.802 95.617 84.972 96.094 86.151 96.543 C 89.5 97.966 92.853 99.378 96.198 100.809 C 97.308 101.278 97.363 101.489 96.89 102.562 C 96.376 103.736 95.881 104.91 95.376 106.085 C 94.477 107.92 93.94 109.911 92.986 111.719 L 92.986 111.719 C 92.706 111.957 92.972 112.388 92.67 112.609 C 91.495 115.324 90.307 118.031 89.151 120.756 C 86.495 126.986 83.848 133.206 81.21 139.436 C 78.463 145.941 75.733 152.455 72.99 158.96 C 70.893 163.914 68.797 168.869 66.691 173.822 C 66.164 175.08 66.022 175.135 64.7 174.603 C 63.416 174.08 62.15 173.529 60.874 172.997 C 59.507 172.346 58.035 171.941 56.7 171.217 L 56.7 171.217 C 56.465 170.934 56.043 171.2 55.81 170.906 Z "
            fill-rule="evenodd" fill="rgb(241,117,34)" />
        </g>
      </g>
    </g>
  </g>
</svg>